<svg width="280" height="312" viewBox="0 0 280 312" fill="none" xmlns="http://www.w3.org/2000/svg">
<path d="M278.856 116.918C278.484 118.884 277.946 120.806 277.242 122.682C276.383 125.114 275.282 127.432 273.947 129.639C272.609 131.846 271.062 133.892 269.301 135.779C268.609 136.547 267.888 137.283 267.137 137.992C266.384 138.701 265.606 139.378 264.798 140.022C263.992 140.668 263.162 141.28 262.305 141.859C261.451 142.436 260.574 142.978 259.674 143.486C258.773 143.994 257.855 144.463 256.917 144.896C255.981 145.329 255.027 145.723 254.057 146.079C253.088 146.436 252.106 146.751 251.111 147.028C250.116 147.304 249.113 147.54 248.098 147.737C247.085 147.932 246.064 148.086 245.038 148.198C244.011 148.312 242.982 148.383 241.95 148.411C240.919 148.442 239.888 148.43 238.856 148.377C237.825 148.322 236.798 148.226 235.775 148.09C234.751 147.954 233.734 147.775 232.725 147.556C231.716 147.339 230.717 147.078 229.731 146.778C228.742 146.479 227.767 146.14 226.807 145.762C225.847 145.384 224.903 144.967 223.975 144.512V145.299C223.798 146.219 223.593 147.133 223.36 148.042C223.126 148.95 222.864 149.85 222.574 150.742C222.284 151.634 221.967 152.516 221.622 153.387C221.279 154.261 220.907 155.121 220.507 155.97C220.109 156.819 219.685 157.654 219.236 158.477C218.786 159.3 218.311 160.107 217.809 160.901C217.308 161.694 216.784 162.47 216.236 163.23C215.686 163.99 215.113 164.733 214.518 165.457C213.923 166.182 213.306 166.887 212.667 167.572C212.029 168.259 211.369 168.923 210.687 169.569C210.007 170.213 209.309 170.837 208.588 171.438C207.869 172.038 207.132 172.617 206.377 173.172C205.622 173.726 204.85 174.259 204.061 174.765C203.273 175.273 202.469 175.754 201.651 176.211C200.833 176.668 200 177.099 199.156 177.504C198.311 177.91 197.452 178.288 196.585 178.639C195.716 178.991 194.837 179.314 193.948 179.613C193.059 179.909 192.161 180.177 191.256 180.417C190.351 180.659 189.437 180.87 188.519 181.055C187.6 181.238 186.676 181.395 185.748 181.521C184.818 181.646 183.886 181.744 182.952 181.811C182.019 181.88 181.083 181.919 180.145 181.929C179.209 181.939 178.271 181.919 177.335 181.87C176.399 181.821 175.467 181.744 174.535 181.636C173.603 181.531 172.678 181.395 171.756 181.23C170.832 181.065 169.916 180.872 169.005 180.651C168.095 180.427 167.192 180.177 166.297 179.901C165.401 179.623 164.516 179.316 163.641 178.983C162.764 178.649 161.899 178.29 161.046 177.902C160.194 177.516 159.353 177.101 158.525 176.662C157.697 176.221 156.885 175.756 156.085 175.266C155.287 174.775 154.503 174.261 153.736 173.722C152.828 174.011 151.908 174.261 150.979 174.47C150.047 174.677 149.111 174.844 148.165 174.97C147.219 175.096 146.271 175.177 145.318 175.218C144.364 175.258 143.412 175.256 142.46 175.214C141.508 175.169 140.558 175.084 139.614 174.954C138.669 174.826 137.732 174.657 136.802 174.444C135.872 174.232 134.954 173.98 134.047 173.686C133.139 173.393 132.246 173.06 131.369 172.688C130.49 172.314 129.631 171.904 128.79 171.455C127.948 171.006 127.13 170.52 126.33 169.998C125.532 169.476 124.758 168.919 124.009 168.328C123.262 167.736 122.539 167.113 121.847 166.458C121.153 165.804 120.491 165.119 119.858 164.404C119.224 163.691 118.625 162.949 118.059 162.183C117.492 161.415 116.96 160.625 116.463 159.81C115.966 158.995 115.507 158.16 115.084 157.305C114.697 158.069 114.283 158.819 113.838 159.55C113.391 160.281 112.918 160.997 112.419 161.692C111.917 162.386 111.39 163.059 110.835 163.713C110.281 164.368 109.702 164.997 109.099 165.605C108.496 166.212 107.869 166.796 107.219 167.354C106.57 167.913 105.9 168.445 105.21 168.951C104.517 169.457 103.809 169.935 103.08 170.386C102.351 170.835 101.606 171.256 100.843 171.648C100.081 172.04 99.3057 172.399 98.5159 172.731C97.7262 173.06 96.9242 173.359 96.1101 173.627C95.296 173.893 94.4738 174.129 93.6414 174.332C92.809 174.533 91.9705 174.704 91.126 174.84C90.2814 174.976 89.4307 175.08 88.578 175.149C87.7254 175.218 86.8686 175.254 86.0139 175.256C85.1571 175.26 84.3024 175.228 83.4477 175.163C82.595 175.098 81.7444 175 80.8978 174.868C80.0532 174.736 79.2127 174.572 78.3803 174.374C77.5459 174.177 76.7216 173.946 75.9075 173.684C75.0913 173.422 74.2894 173.127 73.4976 172.802C72.7038 172.475 71.9262 172.119 71.1629 171.731C70.3995 171.345 69.6504 170.928 68.9195 170.483C68.1886 170.036 67.476 169.563 66.7817 169.061C66.0874 168.559 65.4154 168.031 64.7616 167.476C64.1099 166.922 63.4806 166.34 62.8735 165.737C62.2665 165.132 61.6838 164.506 61.1255 163.856C60.5692 163.205 60.0373 162.533 59.5318 161.842C59.0263 161.149 58.5492 160.438 58.1005 159.708C57.6518 158.979 57.2316 158.233 56.8418 157.471C56.4499 156.707 56.0906 155.931 55.7617 155.141C55.4308 154.348 55.1344 153.546 54.8664 152.733C54.6004 151.918 54.367 151.093 54.1639 150.26C53.9629 149.429 53.7944 148.588 53.6584 147.743C51.618 148.021 49.5675 148.168 47.5069 148.18C46.2461 148.18 44.9874 148.129 43.7327 148.029C42.476 147.928 41.2254 147.775 39.9809 147.574C38.7363 147.373 37.502 147.121 36.2798 146.818C35.0556 146.518 33.8456 146.168 32.6498 145.768C31.454 145.37 30.2765 144.923 29.1172 144.429C27.958 143.933 26.819 143.395 25.7024 142.807C24.5878 142.222 23.4955 141.592 22.4297 140.918C21.3659 140.243 20.3284 139.528 19.3214 138.77C18.3124 138.012 17.3379 137.216 16.3939 136.379C15.4498 135.544 14.5423 134.67 13.6693 133.76C12.7963 132.851 11.9599 131.907 11.164 130.931C10.3662 129.954 9.60889 128.946 8.89426 127.908C8.1776 126.87 7.50357 125.805 6.8742 124.712C6.2428 123.619 5.6581 122.503 5.11807 121.363C4.57803 120.223 4.08469 119.065 3.63804 117.885C3.1914 116.706 2.79144 115.509 2.44225 114.298C1.18555 110.021 0.56024 105.657 0.566331 101.199C0.5643 100.431 0.580542 99.663 0.617086 98.8949C0.65363 98.1289 0.708446 97.3629 0.781533 96.5969C0.856651 95.8329 0.948011 95.0689 1.05967 94.309C1.17133 93.5491 1.30127 92.7912 1.44947 92.0374C1.59768 91.2836 1.76416 90.5338 1.94891 89.7881C2.13365 89.0424 2.33668 88.3028 2.55797 87.5653C2.77926 86.8297 3.01883 86.1003 3.27666 85.377C3.5345 84.6516 3.80858 83.9343 4.10093 83.2252C4.39328 82.5141 4.70187 81.811 5.02874 81.1161C5.3556 80.4212 5.70074 79.7345 6.06008 79.0558C6.42146 78.3772 6.79705 77.7067 7.19091 77.0484C7.58477 76.388 7.99285 75.7378 8.41919 75.0978C8.8435 74.4577 9.28406 73.8299 9.74086 73.2102C10.1956 72.5925 10.6666 71.987 11.1539 71.3917C11.6391 70.7963 12.1385 70.2132 12.6522 69.6422C13.1679 69.0713 13.6957 68.5145 14.2378 67.97C14.7778 67.4255 15.3341 66.8952 15.9005 66.377C16.469 65.8589 17.0496 65.357 17.6404 64.8674C18.2332 64.3777 18.8382 63.9043 19.4534 63.4451C20.0685 62.9859 20.6959 62.5429 21.3334 62.1142C21.9688 61.6855 22.6165 61.273 23.2743 60.8768C23.932 60.4785 24.6 60.0986 25.276 59.7349C25.9521 59.3712 26.6363 59.0237 27.3306 58.6946C28.0229 58.3634 28.7233 58.0505 29.4319 57.7538C30.1404 57.4592 30.8571 57.1808 31.5778 56.9187C32.3006 56.6586 33.0294 56.4169 33.7623 56.1913C34.4973 55.9658 35.2363 55.7585 35.9813 55.5716C36.7244 55.3826 37.4736 55.212 38.2268 55.0596C38.9779 54.9072 39.7352 54.7751 40.4945 54.6593C41.2538 54.5455 42.0151 54.448 42.7785 54.3708C43.5419 54.2936 44.3073 54.2346 45.0747 54.196C45.8421 54.1554 46.6075 54.1351 47.3769 54.133C51.9957 54.1493 56.5169 54.8178 60.9448 56.1405C60.9448 55.7037 60.9448 55.3115 60.9448 54.8747C60.9408 53.2979 61.0078 51.7253 61.1397 50.1547C61.2737 48.584 61.4747 47.0215 61.7427 45.4692C62.0107 43.9148 62.3457 42.3767 62.7456 40.8528C63.1476 39.3269 63.6125 37.8233 64.1424 36.34C64.6743 34.8548 65.2672 33.3959 65.9229 31.9634C66.5787 30.531 67.2953 29.129 68.0729 27.7575C68.8505 26.386 69.6849 25.051 70.5782 23.7527C71.4695 22.4543 72.4155 21.1966 73.4164 19.9795C74.4173 18.7604 75.469 17.59 76.5714 16.4624C77.6718 15.3367 78.8208 14.2598 80.0146 13.2337C81.2104 12.2056 82.4468 11.2324 83.7258 10.3119C85.0028 9.39149 86.3204 8.52795 87.6726 7.7213C89.0267 6.91465 90.4113 6.16693 91.8284 5.48016C93.2455 4.79339 94.691 4.16758 96.1609 3.60475C97.6328 3.04396 99.125 2.54615 100.64 2.11133C102.154 1.67855 103.685 1.31078 105.23 1.01007C106.777 0.70935 108.332 0.473655 109.899 0.307042C111.465 0.14043 113.036 0.0408683 114.609 0.0103903C116.185 -0.0200878 117.758 0.0164857 119.33 0.120111C120.901 0.225767 122.464 0.398476 124.021 0.638235C125.579 0.877995 127.122 1.18277 128.652 1.55664C130.183 1.9305 131.694 2.36735 133.186 2.87125C134.678 3.37515 136.146 3.94204 137.589 4.57192C139.033 5.20179 140.448 5.89466 141.833 6.64644C143.215 7.39823 144.565 8.20895 145.879 9.07858C147.192 9.94822 148.467 10.8727 149.702 11.85C150.936 12.8294 152.126 13.8595 153.271 14.9425C154.416 16.0235 155.514 17.1532 156.562 18.3296C157.609 19.5061 158.604 20.7252 159.548 21.989C160.49 23.2508 161.377 24.5512 162.208 25.8902C163.04 27.2312 163.812 28.6027 164.524 30.0088C165.237 31.4148 165.886 32.8473 166.475 34.3102C169.031 34.0501 171.577 34.1355 174.111 34.5723C175.327 34.8101 176.521 35.1291 177.692 35.5314C178.866 35.9337 180.005 36.4132 181.111 36.972C182.215 37.5307 183.279 38.1626 184.298 38.8677C185.318 39.5707 186.284 40.3428 187.198 41.1799C188.111 42.0191 188.964 42.9151 189.756 43.8701C190.545 44.8251 191.266 45.8288 191.92 46.8834C192.572 47.9379 193.15 49.031 193.652 50.1648C194.155 51.2986 194.577 52.4608 194.921 53.6515C195.353 53.0927 195.808 52.5523 196.283 52.028C196.76 51.5058 197.255 51.0019 197.771 50.5163C198.287 50.0327 198.821 49.5695 199.371 49.1265C199.923 48.6836 200.491 48.263 201.076 47.8668C201.661 47.4685 202.262 47.0947 202.875 46.7452C203.49 46.3937 204.117 46.0686 204.757 45.7679C205.396 45.4672 206.048 45.1908 206.71 44.9409C207.372 44.691 208.042 44.4675 208.72 44.2704C209.4 44.0733 210.086 43.9047 210.779 43.7604C211.471 43.6182 212.167 43.5023 212.87 43.415C213.57 43.3256 214.275 43.2667 214.981 43.2341C215.688 43.1996 216.394 43.1955 217.101 43.2179C217.807 43.2423 218.512 43.2931 219.214 43.3703C219.917 43.4495 220.617 43.5552 221.311 43.6893C222.006 43.8214 222.694 43.9819 223.374 44.1708C224.056 44.3578 224.73 44.5731 225.394 44.8129C226.06 45.0547 226.714 45.3209 227.357 45.6114C228.003 45.904 228.634 46.221 229.253 46.5644C229.873 46.9057 230.476 47.2715 231.066 47.6616C231.657 48.0497 232.232 48.4621 232.79 48.8969C233.346 49.3318 233.886 49.7889 234.408 50.2664C234.932 50.7419 235.433 51.2397 235.917 51.7558C236.4 52.2739 236.861 52.8083 237.303 53.3609C237.744 53.9156 238.162 54.4846 238.558 55.0718C238.954 55.6569 239.327 56.2584 239.677 56.874C240.024 57.4897 240.349 58.1175 240.649 58.7576C240.947 59.3996 241.222 60.0518 241.469 60.7142C241.719 61.3766 241.94 62.0471 242.135 62.7278C242.33 63.4085 242.499 64.0953 242.641 64.7881C242.783 65.481 242.896 66.1799 242.984 66.8809C243.069 67.584 243.128 68.289 243.16 68.9961C243.191 69.7032 243.195 70.4103 243.171 71.1174C244.856 71.1986 246.527 71.3876 248.187 71.6842C248.806 71.8062 249.424 71.9403 250.037 72.0927C250.65 72.243 251.259 72.4096 251.864 72.5905C252.471 72.7713 253.07 72.9664 253.667 73.1756C254.262 73.3869 254.852 73.6105 255.437 73.8502C256.022 74.0879 256.6 74.3419 257.171 74.6101C257.743 74.8763 258.31 75.1587 258.868 75.4533C259.426 75.748 259.977 76.0568 260.521 76.3778C261.065 76.7009 261.599 77.0362 262.127 77.3836C262.655 77.7311 263.172 78.0927 263.682 78.4666C264.191 78.8405 264.691 79.2265 265.182 79.6227C265.671 80.021 266.153 80.4314 266.624 80.854C267.095 81.2746 267.553 81.7074 268.004 82.1524C268.453 82.5953 268.891 83.0505 269.318 83.5158C269.746 83.9811 270.16 84.4565 270.564 84.9421C270.968 85.4298 271.36 85.9235 271.74 86.4295C272.119 86.9354 272.487 87.4494 272.842 87.9716C273.197 88.4938 273.538 89.0262 273.867 89.5667C274.196 90.1051 274.511 90.6537 274.813 91.2084C275.114 91.7631 275.402 92.3259 275.678 92.8948C275.952 93.4638 276.212 94.0388 276.458 94.6219C276.706 95.203 276.937 95.7923 277.154 96.3856C277.372 96.9789 277.575 97.5762 277.763 98.1797C277.952 98.7832 278.125 99.3907 278.283 100.002C278.441 100.614 278.586 101.23 278.713 101.849C278.843 102.467 278.957 103.089 279.055 103.712C279.152 104.338 279.235 104.964 279.304 105.592C279.371 106.222 279.422 106.85 279.461 107.482C279.497 108.113 279.517 108.743 279.524 109.375C279.53 110.009 279.519 110.639 279.495 111.271C279.471 111.903 279.43 112.533 279.375 113.163C279.318 113.793 279.247 114.42 279.162 115.046C279.075 115.674 278.973 116.296 278.856 116.918Z" fill="#4D4D4D"/>
<path d="M163.247 195.547C154.521 197.512 145.536 199.564 136.68 201.746L124.813 204.715C127.688 192.75 130.393 180.766 132.796 168.694C134.542 159.963 136.069 151.492 137.463 142.804C138.86 134.114 140.125 125.338 141.041 116.607C137.202 124.596 133.582 132.63 130.309 140.794C127.038 148.96 104.553 155.291 101.5 163.5L99.2041 229.516L114.691 226.198C123.416 224.32 132.447 222.355 141.26 220.258C144.443 219.517 147.586 218.688 150.769 217.901C146.407 230.432 142.046 243.007 138.075 255.712C135.238 264.925 132.447 274.137 129.96 283.48C127.473 292.824 125.075 302.211 123.155 311.773C128.303 303.477 133.013 295.007 137.508 286.493C142.001 277.98 146.232 269.334 150.595 260.69C158.972 243.225 166.782 225.761 174.153 208.077L181.003 191.66L163.247 195.547Z" fill="#FF7400"/>
<path d="M89.4754 228.385C89.8286 226.581 89.8286 224.777 89.4754 222.972L89.4307 221.27C88.3689 215.989 86.7833 210.871 84.676 205.915C82.5666 200.957 79.9781 196.268 76.9104 191.84C73.8407 196.264 71.2542 200.953 69.153 205.909C67.0517 210.867 65.4783 215.987 64.4348 221.27L64.1729 222.84C63.8643 224.661 63.9374 226.465 64.3901 228.255C64.5911 228.926 64.8428 229.578 65.1474 230.208C65.4519 230.84 65.8031 231.441 66.2051 232.016C66.6071 232.591 67.0497 233.13 67.5369 233.632C68.0262 234.136 68.55 234.597 69.1103 235.015C69.6727 235.434 70.2635 235.806 70.8847 236.129C71.506 236.452 72.1475 236.724 72.8114 236.946C73.4773 237.167 74.1554 237.332 74.8457 237.443C75.538 237.555 76.2323 237.612 76.9327 237.612C77.6332 237.612 78.3295 237.555 79.0198 237.443C79.7101 237.332 80.3882 237.167 81.0541 236.946C81.7179 236.724 82.3595 236.452 82.9807 236.129C83.602 235.806 84.1928 235.434 84.7551 235.015C85.3155 234.597 85.8413 234.136 86.3286 233.632C86.8158 233.13 87.2604 232.591 87.6604 232.016C88.0624 231.441 88.4136 230.84 88.7181 230.208C89.0226 229.578 89.2744 228.926 89.4754 228.255V228.385Z" fill="#5271FF"/>
<mask id="mask0_3_129" style="mask-type:luminance" maskUnits="userSpaceOnUse" x="201" y="256" width="27" height="47">
<path d="M201.291 256.675H227.798V302.607H201.291V256.675Z" fill="white"/>
</mask>
<g mask="url(#mask0_3_129)">
<path d="M227.247 293.267C227.627 291.462 227.627 289.658 227.247 287.852V286.236C226.19 280.956 224.606 275.835 222.499 270.88C220.389 265.922 217.799 261.232 214.725 256.809C211.67 261.238 209.091 265.932 206.99 270.888C204.889 275.843 203.309 280.96 202.249 286.236L201.988 287.852C201.679 289.672 201.752 291.477 202.205 293.267C202.406 293.939 202.658 294.589 202.962 295.221C203.267 295.851 203.62 296.455 204.02 297.028C204.422 297.603 204.864 298.141 205.354 298.645C205.841 299.147 206.365 299.608 206.925 300.027C207.487 300.445 208.078 300.817 208.699 301.14C209.321 301.465 209.962 301.738 210.628 301.957C211.292 302.178 211.97 302.345 212.66 302.457C213.353 302.569 214.047 302.623 214.747 302.623C215.448 302.623 216.144 302.569 216.834 302.457C217.525 302.345 218.203 302.178 218.869 301.957C219.533 301.738 220.176 301.465 220.795 301.14C221.417 300.817 222.007 300.445 222.57 300.027C223.13 299.608 223.656 299.147 224.143 298.645C224.631 298.141 225.075 297.603 225.475 297.028C225.877 296.455 226.228 295.851 226.533 295.221C226.837 294.589 227.091 293.939 227.29 293.267H227.247Z" fill="#5271FF"/>
</g>
<mask id="mask1_3_129" style="mask-type:luminance" maskUnits="userSpaceOnUse" x="37" y="256" width="28" height="47">
<path d="M37.5751 256.675H64.0815V302.607H37.5751V256.675Z" fill="white"/>
</mask>
<g mask="url(#mask1_3_129)">
<path d="M63.6043 293.267C64.0591 291.477 64.1321 289.672 63.8236 287.852L63.5617 286.236C62.5019 280.96 60.9204 275.843 58.8191 270.888C56.7198 265.932 54.1394 261.238 51.084 256.809C48.0123 261.232 45.4217 265.922 43.3123 270.88C41.2029 275.835 39.6214 280.956 38.5637 286.236L38.3018 287.852C37.9201 289.658 37.9201 291.462 38.3018 293.267C38.5028 293.939 38.7545 294.589 39.059 295.221C39.3636 295.851 39.7148 296.455 40.1168 297.028C40.5167 297.603 40.9613 298.141 41.4486 298.645C41.9358 299.147 42.4617 299.608 43.022 300.027C43.5844 300.445 44.1752 300.817 44.7964 301.14C45.4177 301.465 46.0592 301.738 46.7231 301.957C47.389 302.178 48.0671 302.345 48.7574 302.457C49.4476 302.569 50.144 302.623 50.8444 302.623C51.5448 302.623 52.2392 302.569 52.9315 302.457C53.6217 302.345 54.2998 302.178 54.9657 301.957C55.6296 301.738 56.2712 301.465 56.8924 301.14C57.5137 300.817 58.1045 300.445 58.6668 300.027C59.2272 299.608 59.751 299.147 60.2402 298.645C60.7275 298.141 61.1701 297.603 61.5721 297.028C61.974 296.455 62.3253 295.851 62.6298 295.221C62.9343 294.589 63.1861 293.939 63.3871 293.267H63.6043Z" fill="#5271FF"/>
</g>
<path d="M28.9649 202.67C29.4136 200.894 29.4867 199.104 29.1842 197.298L28.9223 195.683C27.8686 190.404 26.2911 185.286 24.1899 180.33C22.0886 175.374 19.5062 170.683 16.4446 166.255C13.3769 170.681 10.7905 175.372 8.68106 180.328C6.57167 185.284 4.98608 190.402 3.92428 195.683L3.66238 197.298C3.38221 199.104 3.4553 200.894 3.88164 202.67C4.0806 203.341 4.33235 203.993 4.63688 204.623C4.94141 205.255 5.29467 205.856 5.69665 206.431C6.0966 207.006 6.54122 207.545 7.02847 208.046C7.51572 208.55 8.03952 209.012 8.60189 209.43C9.16222 209.849 9.75302 210.218 10.3743 210.544C10.9955 210.867 11.6391 211.139 12.303 211.36C12.9668 211.58 13.6449 211.746 14.3372 211.858C15.0275 211.97 15.7239 212.027 16.4243 212.027C17.1227 212.027 17.819 211.97 18.5093 211.858C19.2016 211.746 19.8797 211.58 20.5436 211.36C21.2075 211.139 21.8511 210.867 22.4723 210.544C23.0935 210.218 23.6843 209.849 24.2447 209.43C24.807 209.012 25.3308 208.55 25.8181 208.046C26.3053 207.545 26.75 207.006 27.1519 206.431C27.5519 205.856 27.9051 205.255 28.2097 204.623C28.5142 203.993 28.766 203.341 28.9649 202.67Z" fill="#5271FF"/>
<path d="M201.07 228.385C201.452 226.581 201.452 224.777 201.07 222.972C201.07 222.448 201.07 221.924 200.81 221.4C199.765 216.117 198.191 210.999 196.09 206.041C193.989 201.083 191.402 196.394 188.332 191.972C185.334 196.392 182.81 201.069 180.762 206.002C178.711 210.936 177.178 216.024 176.161 221.27L175.899 222.84C175.633 224.663 175.721 226.467 176.161 228.255C176.364 228.922 176.618 229.57 176.925 230.196C177.231 230.822 177.585 231.421 177.987 231.99C178.388 232.561 178.833 233.095 179.318 233.593C179.806 234.093 180.329 234.55 180.89 234.965C181.45 235.381 182.039 235.749 182.658 236.07C183.277 236.391 183.917 236.661 184.579 236.879C185.24 237.098 185.914 237.263 186.603 237.372C187.291 237.484 187.983 237.539 188.682 237.539C189.378 237.539 190.07 237.484 190.759 237.372C191.447 237.263 192.121 237.098 192.783 236.879C193.445 236.661 194.086 236.391 194.705 236.07C195.322 235.749 195.913 235.381 196.472 234.965C197.032 234.55 197.556 234.093 198.043 233.593C198.53 233.095 198.975 232.561 199.377 231.99C199.779 231.421 200.132 230.822 200.439 230.196C200.745 229.57 200.999 228.922 201.202 228.255L201.07 228.385Z" fill="#5271FF"/>
<path d="M256.345 215.375C256.7 213.569 256.7 211.765 256.345 209.96L256.083 208.388C255.021 203.109 253.435 197.991 251.328 193.033C249.219 188.077 246.63 183.388 243.562 178.96C240.554 183.363 238.016 188.024 235.953 192.944C233.888 197.861 232.339 202.938 231.304 208.17L231.042 209.743C230.66 211.547 230.66 213.352 231.042 215.156C231.243 215.828 231.495 216.479 231.799 217.111C232.104 217.74 232.455 218.344 232.857 218.919C233.259 219.492 233.702 220.03 234.189 220.534C234.678 221.036 235.202 221.497 235.762 221.916C236.325 222.334 236.916 222.706 237.537 223.031C238.158 223.354 238.8 223.627 239.463 223.846C240.129 224.068 240.807 224.234 241.498 224.346C242.188 224.458 242.884 224.513 243.585 224.513C244.285 224.513 244.98 224.458 245.672 224.346C246.362 224.234 247.04 224.068 247.706 223.846C248.37 223.627 249.012 223.354 249.633 223.031C250.254 222.706 250.845 222.334 251.407 221.916C251.968 221.497 252.491 221.036 252.981 220.534C253.468 220.03 253.91 219.492 254.312 218.919C254.714 218.344 255.066 217.74 255.37 217.111C255.675 216.479 255.926 215.828 256.127 215.156L256.345 215.375Z" fill="#5271FF"/>
<path d="M277.242 122.682C277.018 123.322 276.777 123.954 276.519 124.582C276.263 125.21 275.989 125.829 275.699 126.441C275.408 127.054 275.102 127.658 274.779 128.255C274.456 128.853 274.119 129.44 273.766 130.019C273.413 130.596 273.045 131.165 272.661 131.726C272.278 132.284 271.88 132.833 271.468 133.372C271.056 133.91 270.629 134.436 270.191 134.952C269.75 135.466 269.297 135.97 268.83 136.462C268.363 136.954 267.884 137.433 267.393 137.898C266.902 138.366 266.396 138.819 265.881 139.258C265.365 139.699 264.839 140.123 264.301 140.536C263.761 140.948 263.213 141.345 262.655 141.729C262.094 142.111 261.526 142.478 260.947 142.832C260.368 143.183 259.782 143.521 259.185 143.844C258.588 144.165 257.983 144.47 257.372 144.76C256.759 145.051 256.14 145.323 255.512 145.581C254.885 145.837 254.251 146.077 253.612 146.3C252.972 146.524 252.327 146.731 251.677 146.92C251.025 147.109 250.37 147.282 249.712 147.436C249.052 147.59 248.388 147.729 247.72 147.849C247.054 147.968 246.384 148.07 245.712 148.153C245.04 148.239 244.366 148.304 243.69 148.352C243.014 148.401 242.338 148.432 241.66 148.446C240.984 148.458 240.306 148.454 239.628 148.43C238.952 148.407 238.276 148.367 237.6 148.308C236.926 148.249 236.254 148.174 235.582 148.078C234.912 147.985 234.244 147.873 233.578 147.743C232.912 147.613 232.252 147.467 231.594 147.302C230.937 147.137 230.285 146.954 229.637 146.755C228.99 146.556 228.348 146.341 227.711 146.109C227.075 145.876 226.446 145.626 225.822 145.359C225.199 145.093 224.582 144.811 223.975 144.512V145.299C223.798 146.219 223.593 147.133 223.36 148.042C223.126 148.95 222.864 149.85 222.574 150.742C222.284 151.634 221.967 152.516 221.622 153.387C221.279 154.261 220.907 155.121 220.507 155.97C220.109 156.819 219.685 157.654 219.236 158.477C218.786 159.3 218.311 160.107 217.809 160.901C217.308 161.694 216.784 162.47 216.236 163.23C215.686 163.99 215.113 164.733 214.518 165.457C213.923 166.182 213.306 166.887 212.667 167.572C212.029 168.259 211.369 168.923 210.687 169.569C210.007 170.213 209.309 170.837 208.588 171.438C207.869 172.038 207.132 172.617 206.377 173.172C205.622 173.726 204.85 174.259 204.061 174.765C203.273 175.273 202.469 175.754 201.651 176.211C200.833 176.668 200 177.099 199.156 177.504C198.311 177.91 197.452 178.288 196.585 178.639C195.716 178.991 194.837 179.314 193.948 179.613C193.059 179.909 192.162 180.177 191.256 180.417C190.351 180.659 189.437 180.87 188.519 181.055C187.6 181.238 186.676 181.395 185.748 181.521C184.818 181.646 183.886 181.744 182.952 181.811C182.019 181.88 181.083 181.919 180.145 181.929C179.209 181.939 178.271 181.919 177.335 181.87C176.399 181.821 175.467 181.744 174.535 181.636C173.603 181.531 172.678 181.395 171.756 181.23C170.832 181.065 169.916 180.872 169.005 180.651C168.095 180.427 167.192 180.177 166.297 179.901C165.401 179.623 164.516 179.316 163.641 178.983C162.764 178.649 161.899 178.29 161.046 177.902C160.194 177.516 159.353 177.101 158.525 176.662C157.697 176.221 156.885 175.756 156.085 175.266C155.287 174.775 154.503 174.261 153.736 173.722C152.828 174.011 151.908 174.261 150.979 174.47C150.047 174.677 149.111 174.844 148.165 174.97C147.219 175.096 146.271 175.177 145.318 175.218C144.364 175.258 143.412 175.256 142.46 175.214C141.508 175.169 140.558 175.084 139.614 174.954C138.669 174.826 137.732 174.657 136.802 174.444C135.872 174.232 134.954 173.98 134.047 173.686C133.139 173.393 132.246 173.06 131.369 172.688C130.49 172.314 129.631 171.904 128.79 171.455C127.948 171.006 127.13 170.52 126.33 169.998C125.532 169.476 124.758 168.919 124.009 168.328C123.262 167.736 122.539 167.113 121.847 166.458C121.153 165.804 120.491 165.119 119.858 164.404C119.224 163.691 118.625 162.949 118.059 162.183C117.492 161.415 116.96 160.625 116.463 159.81C115.966 158.995 115.507 158.16 115.085 157.305C114.697 158.069 114.283 158.819 113.838 159.55C113.391 160.281 112.918 160.997 112.419 161.692C111.917 162.386 111.39 163.059 110.835 163.713C110.281 164.368 109.702 164.997 109.099 165.605C108.496 166.212 107.869 166.796 107.219 167.354C106.57 167.913 105.9 168.445 105.21 168.951C104.517 169.457 103.809 169.935 103.08 170.386C102.351 170.835 101.606 171.256 100.843 171.648C100.081 172.04 99.3057 172.399 98.516 172.731C97.7262 173.06 96.9243 173.359 96.1102 173.627C95.296 173.893 94.4738 174.129 93.6414 174.332C92.809 174.533 91.9706 174.704 91.126 174.84C90.2814 174.976 89.4308 175.08 88.5781 175.149C87.7254 175.218 86.8686 175.254 86.0139 175.256C85.1572 175.26 84.3024 175.228 83.4477 175.163C82.595 175.098 81.7444 175 80.8978 174.868C80.0532 174.736 79.2127 174.572 78.3803 174.374C77.5459 174.177 76.7216 173.946 75.9075 173.684C75.0914 173.422 74.2894 173.127 73.4977 172.802C72.7038 172.475 71.9263 172.119 71.1629 171.731C70.3995 171.345 69.6504 170.928 68.9195 170.483C68.1886 170.036 67.476 169.563 66.7817 169.061C66.0874 168.559 65.4154 168.031 64.7616 167.476C64.11 166.922 63.4806 166.34 62.8736 165.737C62.2665 165.132 61.6838 164.506 61.1255 163.856C60.5693 163.205 60.0373 162.533 59.5318 161.842C59.0263 161.149 58.5492 160.438 58.1005 159.708C57.6518 158.979 57.2316 158.233 56.8418 157.471C56.45 156.707 56.0906 155.931 55.7617 155.141C55.4308 154.348 55.1344 153.546 54.8664 152.733C54.6004 151.918 54.367 151.093 54.1639 150.26C53.9629 149.429 53.7944 148.588 53.6584 147.743C51.6181 148.021 49.5675 148.168 47.5069 148.18C46.2461 148.182 44.9874 148.131 43.7307 148.031C42.474 147.932 41.2234 147.779 39.9789 147.578C38.7343 147.377 37.5 147.127 36.2757 146.824C35.0515 146.524 33.8415 146.174 32.6457 145.776C31.4499 145.378 30.2724 144.931 29.1132 144.437C27.9519 143.943 26.815 143.403 25.6983 142.818C24.5817 142.23 23.4895 141.601 22.4236 140.926C21.3598 140.253 20.3223 139.536 19.3133 138.778C18.3063 138.022 17.3298 137.224 16.3878 136.387C15.4437 135.552 14.5342 134.678 13.6612 133.768C12.7882 132.857 11.9538 131.915 11.1559 130.937C10.3601 129.96 9.60282 128.952 8.88818 127.914C8.17152 126.874 7.49952 125.809 6.86812 124.716C6.23876 123.623 5.65406 122.507 5.11402 121.367C4.57398 120.225 4.08064 119.065 3.63603 117.887C3.18938 116.706 2.79146 115.509 2.44226 114.298C2.79146 113.087 3.19141 111.891 3.63806 110.712C4.0847 109.532 4.57804 108.372 5.11808 107.234C5.65812 106.094 6.24282 104.976 6.87421 103.885C7.50358 102.792 8.17761 101.727 8.89427 100.689C9.60891 99.6508 10.3662 98.643 11.1641 97.6656C11.9599 96.6883 12.7963 95.7455 13.6693 94.8353C14.5423 93.927 15.4498 93.0533 16.3939 92.2162C17.3379 91.3811 18.3124 90.5826 19.3214 89.8267C20.3284 89.0688 21.3659 88.3516 22.4297 87.6791C23.4956 87.0045 24.5878 86.3746 25.7024 85.7874C26.819 85.2022 27.958 84.6617 29.1172 84.168C30.2765 83.6743 31.454 83.2272 32.6498 82.829C33.8456 82.4287 35.0556 82.0792 36.2798 81.7765C37.502 81.4758 38.7364 81.2238 39.9809 81.0227C41.2254 80.8195 42.476 80.6691 43.7327 80.5675C44.9874 80.466 46.2461 80.4172 47.5069 80.4172C52.1256 80.4334 56.6489 81.1019 61.0748 82.4247C61.0748 81.9878 61.0748 81.5957 61.0748 81.1588C61.0728 79.5821 61.1377 78.0094 61.2717 76.4388C61.4057 74.8682 61.6047 73.3057 61.8727 71.7533C62.1427 70.199 62.4756 68.6608 62.8776 67.1369C63.2776 65.611 63.7425 64.1074 64.2744 62.6242C64.8043 61.1389 65.3971 59.68 66.0549 58.2476C66.7106 56.8151 67.4273 55.4131 68.2049 54.0416C68.9804 52.6701 69.8169 51.3352 70.7081 50.0368C71.5994 48.7385 72.5475 47.4807 73.5484 46.2637C74.5493 45.0466 75.5989 43.8742 76.7013 42.7465C77.8037 41.6209 78.9508 40.544 80.1466 39.5179C81.3404 38.4898 82.5768 37.5165 83.8558 36.5961C85.1348 35.6756 86.4504 34.8121 87.8046 34.0054C89.1567 33.1988 90.5413 32.4511 91.9604 31.7643C93.3775 31.0775 94.821 30.4517 96.2929 29.8889C97.7648 29.3281 99.257 28.8303 100.772 28.3955C102.286 27.9627 103.815 27.5949 105.362 27.2942C106.907 26.9935 108.464 26.7598 110.029 26.5912C111.597 26.4246 113.166 26.327 114.741 26.2945C116.315 26.2641 117.888 26.3006 119.46 26.4043C121.031 26.5099 122.596 26.6826 124.153 26.9224C125.709 27.1621 127.254 27.4669 128.782 27.8408C130.313 28.2146 131.826 28.6515 133.318 29.1554C134.81 29.6593 136.278 30.2262 137.721 30.8561C139.165 31.488 140.578 32.1788 141.962 32.9306C143.347 33.6844 144.695 34.4951 146.009 35.3627C147.324 36.2324 148.597 37.1569 149.832 38.1362C151.066 39.1135 152.256 40.1457 153.403 41.2267C154.548 42.3076 155.644 43.4373 156.692 44.6138C157.741 45.7902 158.736 47.0093 159.678 48.2732C160.622 49.5349 161.509 50.8353 162.34 52.1764C163.17 53.5154 163.942 54.8869 164.654 56.2929C165.367 57.699 166.018 59.1334 166.607 60.5944C169.163 60.3343 171.707 60.4216 174.241 60.8565C175.457 61.0942 176.651 61.4132 177.824 61.8155C178.996 62.2178 180.135 62.6973 181.241 63.2561C182.347 63.8149 183.409 64.4468 184.43 65.1518C185.45 65.8569 186.416 66.6269 187.33 67.4641C188.243 68.3032 189.096 69.1993 189.886 70.1543C190.675 71.1092 191.398 72.113 192.05 73.1675C192.704 74.222 193.28 75.3152 193.784 76.449C194.285 77.5827 194.707 78.745 195.051 79.9356C195.483 79.3769 195.938 78.8364 196.415 78.3122C196.89 77.79 197.385 77.2861 197.901 76.8005C198.417 76.3169 198.951 75.8536 199.503 75.4107C200.055 74.9677 200.623 74.5492 201.208 74.1509C201.793 73.7527 202.392 73.3788 203.007 73.0293C203.62 72.6778 204.247 72.3527 204.889 72.052C205.528 71.7513 206.178 71.475 206.84 71.225C207.502 70.9751 208.172 70.7516 208.852 70.5545C209.53 70.3574 210.216 70.1888 210.908 70.0445C211.601 69.9023 212.299 69.7865 213 69.6991C213.702 69.6097 214.407 69.5508 215.111 69.5183C215.818 69.4858 216.524 69.4797 217.231 69.502C217.939 69.5264 218.644 69.5772 219.346 69.6544C220.049 69.7337 220.747 69.8393 221.441 69.9734C222.136 70.1075 222.824 70.268 223.506 70.455C224.188 70.6419 224.86 70.8573 225.526 71.097C226.19 71.3388 226.846 71.605 227.489 71.8976C228.133 72.1882 228.764 72.5051 229.383 72.8485C230.003 73.1899 230.608 73.5556 231.198 73.9457C231.787 74.3338 232.362 74.7463 232.92 75.1811C233.478 75.6159 234.018 76.0731 234.54 76.5506C235.062 77.026 235.565 77.5238 236.049 78.0399C236.53 78.558 236.993 79.0924 237.433 79.6451C237.874 80.1998 238.292 80.7687 238.69 81.3559C239.086 81.9411 239.457 82.5425 239.807 83.1582C240.156 83.7738 240.481 84.4017 240.779 85.0417C241.079 85.6838 241.352 86.336 241.601 86.9984C241.849 87.6608 242.07 88.3313 242.267 89.012C242.462 89.6926 242.631 90.3794 242.773 91.0723C242.913 91.7651 243.026 92.4641 243.114 93.1651C243.201 93.8681 243.26 94.5732 243.29 95.2802C243.323 95.9873 243.325 96.6944 243.301 97.4015C244.986 97.4828 246.658 97.6717 248.317 97.9684C249.947 98.2854 251.549 98.7039 253.123 99.2281C254.698 99.7503 256.233 100.372 257.727 101.093C259.221 101.815 260.665 102.629 262.054 103.536C263.444 104.442 264.77 105.435 266.031 106.514C267.294 107.591 268.481 108.747 269.594 109.979C270.706 111.21 271.736 112.506 272.682 113.872C273.628 115.235 274.483 116.655 275.246 118.129C276.009 119.604 276.675 121.121 277.242 122.682Z" fill="#666666"/>
</svg>
